<mxfile host="app.diagrams.net" modified="2023-08-19T01:32:51.786Z" agent="Mozilla/5.0 (Windows NT 10.0; Win64; x64) AppleWebKit/537.36 (KHTML, like Gecko) Chrome/112.0.0.0 Safari/537.36 Edg/112.0.1722.39" etag="KD-h4DQtwtGS-YWrYtZI" version="21.2.9" type="github">
  <diagram id="C5RBs43oDa-KdzZeNtuy" name="Page-1">
    <mxGraphModel dx="1066" dy="623" grid="1" gridSize="10" guides="1" tooltips="1" connect="1" arrows="1" fold="1" page="1" pageScale="1" pageWidth="827" pageHeight="1169" math="0" shadow="0">
      <root>
        <mxCell id="WIyWlLk6GJQsqaUBKTNV-0" />
        <mxCell id="WIyWlLk6GJQsqaUBKTNV-1" parent="WIyWlLk6GJQsqaUBKTNV-0" />
        <mxCell id="vCT22L1cX3NiSA8vQcXV-1" value="" style="rounded=0;html=1;jettySize=auto;orthogonalLoop=1;fontSize=11;endArrow=block;endFill=0;endSize=8;strokeWidth=1;shadow=0;labelBackgroundColor=none;edgeStyle=orthogonalEdgeStyle;" edge="1" parent="WIyWlLk6GJQsqaUBKTNV-1" target="vCT22L1cX3NiSA8vQcXV-0">
          <mxGeometry relative="1" as="geometry">
            <mxPoint x="220" y="120" as="sourcePoint" />
            <mxPoint x="220" y="170" as="targetPoint" />
          </mxGeometry>
        </mxCell>
        <mxCell id="vCT22L1cX3NiSA8vQcXV-3" style="edgeStyle=orthogonalEdgeStyle;rounded=0;orthogonalLoop=1;jettySize=auto;html=1;entryX=0.5;entryY=0;entryDx=0;entryDy=0;" edge="1" parent="WIyWlLk6GJQsqaUBKTNV-1" source="vCT22L1cX3NiSA8vQcXV-0" target="vCT22L1cX3NiSA8vQcXV-2">
          <mxGeometry relative="1" as="geometry" />
        </mxCell>
        <mxCell id="vCT22L1cX3NiSA8vQcXV-0" value="Start" style="ellipse;whiteSpace=wrap;html=1;" vertex="1" parent="WIyWlLk6GJQsqaUBKTNV-1">
          <mxGeometry x="180" y="60" width="120" height="70" as="geometry" />
        </mxCell>
        <mxCell id="vCT22L1cX3NiSA8vQcXV-5" style="edgeStyle=orthogonalEdgeStyle;rounded=0;orthogonalLoop=1;jettySize=auto;html=1;exitX=0.5;exitY=1;exitDx=0;exitDy=0;entryX=0.5;entryY=0;entryDx=0;entryDy=0;" edge="1" parent="WIyWlLk6GJQsqaUBKTNV-1" source="vCT22L1cX3NiSA8vQcXV-2" target="vCT22L1cX3NiSA8vQcXV-4">
          <mxGeometry relative="1" as="geometry" />
        </mxCell>
        <mxCell id="vCT22L1cX3NiSA8vQcXV-2" value="Initialize input:&lt;br&gt;n integers" style="shape=parallelogram;perimeter=parallelogramPerimeter;whiteSpace=wrap;html=1;fixedSize=1;" vertex="1" parent="WIyWlLk6GJQsqaUBKTNV-1">
          <mxGeometry x="170" y="180" width="160" height="80" as="geometry" />
        </mxCell>
        <mxCell id="vCT22L1cX3NiSA8vQcXV-7" style="edgeStyle=orthogonalEdgeStyle;rounded=0;orthogonalLoop=1;jettySize=auto;html=1;exitX=0.5;exitY=1;exitDx=0;exitDy=0;entryX=0.5;entryY=0;entryDx=0;entryDy=0;" edge="1" parent="WIyWlLk6GJQsqaUBKTNV-1" source="vCT22L1cX3NiSA8vQcXV-4" target="vCT22L1cX3NiSA8vQcXV-6">
          <mxGeometry relative="1" as="geometry" />
        </mxCell>
        <mxCell id="vCT22L1cX3NiSA8vQcXV-14" style="edgeStyle=orthogonalEdgeStyle;rounded=0;orthogonalLoop=1;jettySize=auto;html=1;exitX=1;exitY=0.5;exitDx=0;exitDy=0;" edge="1" parent="WIyWlLk6GJQsqaUBKTNV-1" source="vCT22L1cX3NiSA8vQcXV-4" target="vCT22L1cX3NiSA8vQcXV-11">
          <mxGeometry relative="1" as="geometry" />
        </mxCell>
        <mxCell id="vCT22L1cX3NiSA8vQcXV-4" value="if integer &amp;lt; 1" style="rhombus;whiteSpace=wrap;html=1;" vertex="1" parent="WIyWlLk6GJQsqaUBKTNV-1">
          <mxGeometry x="200" y="290" width="100" height="100" as="geometry" />
        </mxCell>
        <mxCell id="vCT22L1cX3NiSA8vQcXV-8" style="edgeStyle=orthogonalEdgeStyle;rounded=0;orthogonalLoop=1;jettySize=auto;html=1;exitX=0;exitY=0.5;exitDx=0;exitDy=0;" edge="1" parent="WIyWlLk6GJQsqaUBKTNV-1" source="vCT22L1cX3NiSA8vQcXV-6">
          <mxGeometry relative="1" as="geometry">
            <mxPoint x="170" y="470" as="targetPoint" />
          </mxGeometry>
        </mxCell>
        <mxCell id="vCT22L1cX3NiSA8vQcXV-9" style="edgeStyle=orthogonalEdgeStyle;rounded=0;orthogonalLoop=1;jettySize=auto;html=1;entryX=0;entryY=0.5;entryDx=0;entryDy=0;" edge="1" parent="WIyWlLk6GJQsqaUBKTNV-1" source="vCT22L1cX3NiSA8vQcXV-6" target="vCT22L1cX3NiSA8vQcXV-2">
          <mxGeometry relative="1" as="geometry">
            <mxPoint x="100" y="220" as="targetPoint" />
            <Array as="points">
              <mxPoint x="101" y="470" />
              <mxPoint x="101" y="220" />
            </Array>
          </mxGeometry>
        </mxCell>
        <mxCell id="vCT22L1cX3NiSA8vQcXV-6" value="print &quot;Integer must be &amp;gt; 1, sum of squares requires more than one integer." style="rounded=0;whiteSpace=wrap;html=1;" vertex="1" parent="WIyWlLk6GJQsqaUBKTNV-1">
          <mxGeometry x="155" y="440" width="190" height="80" as="geometry" />
        </mxCell>
        <mxCell id="vCT22L1cX3NiSA8vQcXV-15" style="edgeStyle=orthogonalEdgeStyle;rounded=0;orthogonalLoop=1;jettySize=auto;html=1;exitX=1;exitY=0.5;exitDx=0;exitDy=0;" edge="1" parent="WIyWlLk6GJQsqaUBKTNV-1" source="vCT22L1cX3NiSA8vQcXV-11" target="vCT22L1cX3NiSA8vQcXV-12">
          <mxGeometry relative="1" as="geometry" />
        </mxCell>
        <mxCell id="vCT22L1cX3NiSA8vQcXV-11" value="Calculate sum of squares of integers" style="rounded=0;whiteSpace=wrap;html=1;" vertex="1" parent="WIyWlLk6GJQsqaUBKTNV-1">
          <mxGeometry x="360" y="310" width="120" height="60" as="geometry" />
        </mxCell>
        <mxCell id="vCT22L1cX3NiSA8vQcXV-16" style="edgeStyle=orthogonalEdgeStyle;rounded=0;orthogonalLoop=1;jettySize=auto;html=1;exitX=1;exitY=0.5;exitDx=0;exitDy=0;entryX=0;entryY=0.5;entryDx=0;entryDy=0;" edge="1" parent="WIyWlLk6GJQsqaUBKTNV-1" source="vCT22L1cX3NiSA8vQcXV-12" target="vCT22L1cX3NiSA8vQcXV-13">
          <mxGeometry relative="1" as="geometry" />
        </mxCell>
        <mxCell id="vCT22L1cX3NiSA8vQcXV-12" value="Print Output:&lt;br&gt;Sum of squares of integers" style="shape=parallelogram;perimeter=parallelogramPerimeter;whiteSpace=wrap;html=1;fixedSize=1;" vertex="1" parent="WIyWlLk6GJQsqaUBKTNV-1">
          <mxGeometry x="510" y="310" width="120" height="60" as="geometry" />
        </mxCell>
        <mxCell id="vCT22L1cX3NiSA8vQcXV-13" value="End" style="ellipse;whiteSpace=wrap;html=1;" vertex="1" parent="WIyWlLk6GJQsqaUBKTNV-1">
          <mxGeometry x="680" y="300" width="120" height="80" as="geometry" />
        </mxCell>
      </root>
    </mxGraphModel>
  </diagram>
</mxfile>
